<?xml version="1.0" standalone="no"?><!-- Generator: Gravit.io --><svg xmlns="http://www.w3.org/2000/svg" xmlns:xlink="http://www.w3.org/1999/xlink" style="isolation:isolate" viewBox="0 9.086 357.985 308.794" width="357.985" height="308.794"><g id="Group"><ellipse vector-effect="non-scaling-stroke" cx="205.3752685273656" cy="150.9461817426803" rx="137.3900652070327" ry="141.8606620639144" id="Ellipse" fill="rgb(255,0,0)"/><path d=" M 213.194 263.108 C 201.49 223.059 223.727 181.268 262.823 169.843 C 301.918 158.417 343.161 181.656 354.864 221.704 C 366.569 261.752 344.332 303.543 305.236 314.969 C 266.142 326.395 224.899 303.157 213.194 263.108 Z " id="Ellipse" fill="rgb(255,255,255)"/><path d=" M 3.121 120.175 C -8.584 80.127 13.654 38.336 52.749 26.91 C 91.844 15.484 133.087 38.723 144.791 78.771 C 156.496 118.819 134.258 160.61 95.163 172.036 C 56.068 183.462 14.826 160.224 3.121 120.175 Z " id="Ellipse" fill="rgb(255,255,255)"/><path d=" M 17.699 115.914 C 8.403 84.108 26.064 50.918 57.113 41.844 C 88.163 32.769 120.918 51.225 130.214 83.032 C 139.509 114.838 121.848 148.028 90.798 157.102 C 59.749 166.177 26.994 147.721 17.699 115.914 Z " id="Ellipse" fill="rgb(0,26,53)"/><path d=" M 227.772 258.847 C 218.476 227.041 236.137 193.851 267.187 184.776 C 298.236 175.702 330.991 194.158 340.287 225.964 C 349.582 257.771 331.921 290.961 300.872 300.035 C 269.823 309.11 237.068 290.654 227.772 258.847 Z " id="Ellipse" fill="rgb(0,26,53)"/></g></svg>